<?xml version="1.0" standalone="no"?>
<!DOCTYPE svg PUBLIC "-//W3C//DTD SVG 20010904//EN"
 "http://www.w3.org/TR/2001/REC-SVG-20010904/DTD/svg10.dtd">
<svg version="1.0" xmlns="http://www.w3.org/2000/svg"
 width="120.000000pt" height="120.000000pt" viewBox="0 0 120.000000 120.000000"
 preserveAspectRatio="xMidYMid meet">
<metadata>
Created by potrace 1.14, written by Peter Selinger 2001-2017
</metadata>
<g transform="translate(0.000000,120.000000) scale(0.100000,-0.100000)"
fill="#000000" stroke="none">
<path d="M563 1161 c-39 -14 -74 -28 -76 -31 -3 -3 102 -61 234 -130 131 -69
239 -130 239 -137 0 -6 -25 -21 -55 -32 -31 -12 -73 -30 -93 -40 -36 -18 -38
-18 -59 -1 -12 10 -125 74 -251 144 l-228 126 -100 -36 c-54 -19 -100 -37
-102 -38 -1 -2 104 -66 235 -141 131 -76 240 -139 242 -141 1 -1 -1 -9 -5 -16
-5 -7 -9 -152 -8 -323 0 -171 -1 -265 -3 -210 -2 55 -6 107 -9 115 -3 8 -7 39
-8 67 -3 49 -7 57 -54 105 -52 53 -61 68 -42 68 16 0 80 -65 81 -81 0 -8 5 -3
10 10 5 13 8 25 7 26 -21 13 -157 94 -167 100 -10 6 -12 4 -6 -5 5 -8 4 -11
-2 -7 -5 3 -18 24 -29 46 -10 23 -26 43 -34 46 -23 7 -52 77 -39 90 7 7 14 5
22 -6 7 -9 17 -14 24 -12 7 3 15 -8 19 -24 3 -15 12 -46 20 -68 13 -39 13 -38
14 55 l0 96 -30 17 c-17 10 -30 16 -30 13 0 -3 -11 5 -24 17 -13 13 -37 29
-53 37 -15 8 -50 28 -78 45 -27 17 -55 34 -62 38 -9 6 -11 -9 -7 -60 21 -310
34 -512 34 -530 0 -17 49 -56 230 -183 163 -114 236 -160 248 -155 9 3 141 65
293 137 l277 131 6 136 c3 75 9 222 12 328 l6 192 -252 126 c-138 69 -257 124
-263 124 -7 -1 -44 -13 -84 -28z m-409 -415 c4 -16 2 -16 -18 3 -21 20 -25 21
-39 7 -13 -14 -16 -14 -21 0 -3 8 -2 12 4 9 6 -3 10 -1 10 5 0 6 5 8 11 4 9
-5 10 1 5 22 l-7 29 25 -30 c13 -16 27 -38 30 -49z m154 2 c-2 -6 -10 -14 -16
-16 -7 -2 -10 2 -6 12 7 18 28 22 22 4z m-47 -148 c8 0 29 -55 29 -78 0 -18
-45 64 -54 99 -6 24 -6 24 5 2 7 -13 15 -23 20 -23z m49 -42 c5 -13 17 -33 26
-45 9 -13 12 -23 6 -23 -5 0 -16 10 -24 23 -18 26 -32 67 -23 67 3 0 10 -10
15 -22z m68 -39 c-3 -8 -7 -3 -11 10 -4 17 -3 21 5 13 5 -5 8 -16 6 -23z m40
-104 c-3 -3 -9 2 -12 12 -6 14 -5 15 5 6 7 -7 10 -15 7 -18z"/>
<path d="M366 661 c-3 -5 1 -11 9 -15 8 -3 15 -1 15 4 0 13 -18 22 -24 11z"/>
<path d="M401 634 c0 -11 3 -14 6 -6 3 7 2 16 -1 19 -3 4 -6 -2 -5 -13z"/>
<path d="M396 568 c3 -5 10 -6 15 -3 13 9 11 12 -6 12 -8 0 -12 -4 -9 -9z"/>
</g>
</svg>
