<?xml version="1.0" standalone="no"?>
<!DOCTYPE svg PUBLIC "-//W3C//DTD SVG 20010904//EN"
 "http://www.w3.org/TR/2001/REC-SVG-20010904/DTD/svg10.dtd">
<svg version="1.0" xmlns="http://www.w3.org/2000/svg"
 width="120.000000pt" height="120.000000pt" viewBox="0 0 120.000000 120.000000"
 preserveAspectRatio="xMidYMid meet">
<metadata>
Created by potrace 1.14, written by Peter Selinger 2001-2017
</metadata>
<g transform="translate(0.000000,120.000000) scale(0.100000,-0.100000)"
fill="#000000" stroke="none">
<path d="M0 1108 c0 -5 9 -12 21 -15 24 -7 23 -48 -1 -48 -13 0 -15 -33 -18
-222 -2 -224 -2 -229 31 -224 4 0 7 -14 8 -31 4 -131 7 -239 10 -338 4 -166
13 -173 244 -197 33 -3 222 -6 420 -6 502 1 485 0 485 19 0 10 -7 14 -22 12
-20 -3 -23 2 -23 27 0 25 4 30 23 27 l22 -3 0 226 c0 191 -2 227 -15 231 -18
7 -21 65 -3 61 6 -1 13 5 15 14 3 13 -6 15 -59 14 -35 -1 -69 0 -76 3 -9 3
-11 43 -7 173 5 196 5 197 -90 224 -65 19 -85 22 -250 40 -46 5 -302 14 -547
19 -107 3 -168 0 -168 -6z m115 -42 c0 -22 -14 -29 -33 -18 -17 12 -4 44 17
40 9 -2 16 -12 16 -22z m80 -1 c0 -29 -37 -27 -42 3 -2 19 1 23 19 20 15 -2
23 -10 23 -23z m78 5 c6 -22 -7 -34 -28 -27 -11 5 -13 21 -6 45 4 11 30 -2 34
-18z m76 -26 c-14 -17 -39 -7 -39 16 0 24 22 31 37 12 9 -11 10 -19 2 -28z
m84 -1 c-7 -18 -38 -8 -41 15 -2 13 3 22 15 24 19 4 34 -18 26 -39z m80 18 c3
-12 -1 -22 -10 -25 -20 -8 -33 1 -33 25 0 25 36 25 43 0z m77 -6 c0 -18 -5
-25 -20 -25 -20 0 -28 28 -13 43 15 16 33 6 33 -18z m80 -5 c0 -18 -23 -34
-34 -23 -11 11 -6 41 7 46 17 6 27 -1 27 -23z m75 -5 c0 -11 -8 -21 -17 -23
-14 -3 -18 3 -18 23 0 20 4 26 18 23 9 -2 17 -12 17 -23z m78 3 c6 -19 -3 -38
-18 -38 -18 0 -28 17 -21 35 7 18 33 20 39 3z m69 -4 c3 -3 4 -14 1 -25 -8
-28 -33 -24 -33 6 0 23 18 34 32 19z m64 -51 c-5 -13 -9 -14 -19 -4 -15 15
-16 34 -2 43 13 9 28 -19 21 -39z m54 2 c0 -15 -6 -25 -14 -25 -9 0 -13 10
-12 25 1 33 26 33 26 0z m31 -32 c-9 -16 -10 -14 -11 12 0 21 3 26 11 18 8 -8
8 -16 0 -30z m-1006 -314 c8 -23 1 -34 -14 -24 -13 8 -15 45 -2 45 5 0 13 -9
16 -21z m1085 -39 c13 -21 0 -40 -26 -40 -18 0 -24 5 -24 23 0 13 3 26 6 29 9
10 35 3 44 -12z m-1030 -476 c0 -13 -4 -24 -10 -24 -5 0 -10 14 -10 31 0 17 4
28 10 24 6 -3 10 -17 10 -31z m67 -5 c6 -6 9 -19 6 -29 -7 -27 -40 -14 -40 16
0 25 16 31 34 13z m93 -36 c0 -19 -4 -24 -22 -21 -20 3 -33 32 -22 49 10 17
44 -4 44 -28z m84 12 c19 -19 10 -45 -14 -45 -24 0 -33 15 -25 40 8 24 18 25
39 5z m101 -25 c-1 -19 -5 -24 -20 -22 -40 8 -41 56 -1 50 15 -2 21 -10 21
-28z m95 1 c0 -22 -4 -28 -17 -26 -10 2 -21 4 -25 4 -10 1 -10 35 -1 44 3 4
15 7 25 7 13 0 18 -8 18 -29z m100 5 c0 -24 -23 -41 -41 -30 -5 3 -9 16 -9 30
0 19 5 24 25 24 20 0 25 -5 25 -24z m96 2 c3 -21 -19 -40 -38 -33 -12 5 -15
28 -9 53 3 12 45 -6 47 -20z m94 -2 c0 -24 -23 -41 -41 -30 -10 6 -12 38 -2
47 3 4 15 7 25 7 12 0 18 -7 18 -24z m95 -6 c0 -18 -6 -25 -20 -25 -25 -1 -34
12 -27 37 7 30 47 20 47 -12z m93 3 c-5 -44 -47 -35 -48 10 0 12 8 17 26 17
22 0 25 -4 22 -27z m102 3 c0 -17 -7 -25 -25 -28 -26 -5 -35 6 -27 35 3 10 14
17 28 17 19 0 24 -5 24 -24z"/>
</g>
</svg>
