<svg xmlns="http://www.w3.org/2000/svg" width="96" height="83" viewBox="0 0 96 83">
  <g id="gruppo_star_1" data-name="gruppo star 1" transform="translate(-729 -802)">
    <g id="Poligono_5" data-name="Poligono 5" transform="translate(729 802)" fill="#fdfdfd">
      <path d="M 29.5 57.41886901855469 L 22.59934043884277 36.71688842773438 L 22.5202808380127 36.47972106933594 L 22.28310966491699 36.40066146850586 L 1.581130027770996 29.5 L 22.28310966491699 22.59934043884277 L 22.5202808380127 22.5202808380127 L 22.59934043884277 22.28310966491699 L 29.5 1.581130027770996 L 36.40066146850586 22.28310966491699 L 36.47972106933594 22.5202808380127 L 36.71688842773438 22.59934043884277 L 57.41886901855469 29.5 L 36.71688842773438 36.40066146850586 L 36.47972106933594 36.47972106933594 L 36.40066146850586 36.71688842773438 L 29.5 57.41886901855469 Z" stroke="none"/>
      <path d="M 29.5 3.162269592285156 L 23.07368087768555 22.44123077392578 L 22.91556930541992 22.91556930541992 L 22.44123077392578 23.07368087768555 L 3.162269592285156 29.5 L 22.44123077392578 35.92631912231445 L 22.91556930541992 36.08443069458008 L 23.07368087768555 36.55876922607422 L 29.5 55.83773040771484 L 35.92631912231445 36.55876922607422 L 36.08443069458008 36.08443069458008 L 36.55876922607422 35.92631912231445 L 55.83773040771484 29.5 L 36.55876922607422 23.07368087768555 L 36.08443069458008 22.91556930541992 L 35.92631912231445 22.44123077392578 L 29.5 3.162269592285156 M 29.5 0 L 36.875 22.125 L 59 29.5 L 36.875 36.875 L 29.5 59 L 22.125 36.875 L 0 29.5 L 22.125 22.125 L 29.5 0 Z" stroke="none" fill="#fff"/>
    </g>
    <g id="Poligono_4" data-name="Poligono 4" transform="translate(770 854)" fill="#fdfdfd">
      <path d="M 15.5 29.41887092590332 L 12.09934043884277 19.21689033508301 L 12.02027988433838 18.9797191619873 L 11.78310966491699 18.90065956115723 L 1.581130027770996 15.5 L 11.78310966491699 12.09934043884277 L 12.02027988433838 12.02027988433838 L 12.09934043884277 11.78310966491699 L 15.5 1.581130027770996 L 18.90065956115723 11.78310966491699 L 18.9797191619873 12.02027988433838 L 19.21689033508301 12.09934043884277 L 29.41887092590332 15.5 L 19.21689033508301 18.90065956115723 L 18.9797191619873 18.9797191619873 L 18.90065956115723 19.21689033508301 L 15.5 29.41887092590332 Z" stroke="none"/>
      <path d="M 15.5 3.162269592285156 L 12.57368087768555 11.94123077392578 L 12.41556930541992 12.41556930541992 L 11.94123077392578 12.57368087768555 L 3.162269592285156 15.5 L 11.94123077392578 18.42631912231445 L 12.41556930541992 18.58443069458008 L 12.57368087768555 19.05876922607422 L 15.5 27.83773040771484 L 18.42631912231445 19.05876922607422 L 18.58443069458008 18.58443069458008 L 19.05876922607422 18.42631912231445 L 27.83773040771484 15.5 L 19.05876922607422 12.57368087768555 L 18.58443069458008 12.41556930541992 L 18.42631912231445 11.94123077392578 L 15.5 3.162269592285156 M 15.5 0 L 19.375 11.625 L 31 15.5 L 19.375 19.375 L 15.5 31 L 11.625 19.375 L 0 15.5 L 11.625 11.625 L 15.5 0 Z" stroke="none" fill="#fff"/>
    </g>
    <g id="Poligono_6" data-name="Poligono 6" transform="translate(794 816)" fill="#fdfdfd">
      <path d="M 15.5 29.41887092590332 L 12.09934043884277 19.21689033508301 L 12.02027988433838 18.9797191619873 L 11.78310966491699 18.90065956115723 L 1.581130027770996 15.5 L 11.78310966491699 12.09934043884277 L 12.02027988433838 12.02027988433838 L 12.09934043884277 11.78310966491699 L 15.5 1.581130027770996 L 18.90065956115723 11.78310966491699 L 18.9797191619873 12.02027988433838 L 19.21689033508301 12.09934043884277 L 29.41887092590332 15.5 L 19.21689033508301 18.90065956115723 L 18.9797191619873 18.9797191619873 L 18.90065956115723 19.21689033508301 L 15.5 29.41887092590332 Z" stroke="none"/>
      <path d="M 15.5 3.162269592285156 L 12.57368087768555 11.94123077392578 L 12.41556930541992 12.41556930541992 L 11.94123077392578 12.57368087768555 L 3.162269592285156 15.5 L 11.94123077392578 18.42631912231445 L 12.41556930541992 18.58443069458008 L 12.57368087768555 19.05876922607422 L 15.5 27.83773040771484 L 18.42631912231445 19.05876922607422 L 18.58443069458008 18.58443069458008 L 19.05876922607422 18.42631912231445 L 27.83773040771484 15.5 L 19.05876922607422 12.57368087768555 L 18.58443069458008 12.41556930541992 L 18.42631912231445 11.94123077392578 L 15.5 3.162269592285156 M 15.5 0 L 19.375 11.625 L 31 15.5 L 19.375 19.375 L 15.5 31 L 11.625 19.375 L 0 15.5 L 11.625 11.625 L 15.5 0 Z" stroke="none" fill="#fff"/>
    </g>
  </g>
</svg>
